<svg width="16" height="16" viewBox="0 0 16 16" fill="none" xmlns="http://www.w3.org/2000/svg">
<g clip-path="url(#clip0)">
<path d="M8 6.45721C9.50152 6.45721 10.7188 5.23999 10.7188 3.73846C10.7188 2.23694 9.50152 1.01971 8 1.01971C6.49848 1.01971 5.28125 2.23694 5.28125 3.73846C5.28125 5.23999 6.49848 6.45721 8 6.45721Z" fill="#11263C"/>
<path d="M13.5 6.45721C14.4492 6.45721 15.2188 5.6877 15.2188 4.73846C15.2188 3.78922 14.4492 3.01971 13.5 3.01971C12.5508 3.01971 11.7812 3.78922 11.7812 4.73846C11.7812 5.6877 12.5508 6.45721 13.5 6.45721Z" fill="#11263C"/>
<path d="M2.5 6.45721C3.44924 6.45721 4.21875 5.6877 4.21875 4.73846C4.21875 3.78922 3.44924 3.01971 2.5 3.01971C1.55076 3.01971 0.78125 3.78922 0.78125 4.73846C0.78125 5.6877 1.55076 6.45721 2.5 6.45721Z" fill="#11263C"/>
<path d="M4.19344 8.00063C3.51688 7.44632 2.90416 7.51969 2.12188 7.51969C0.951875 7.51969 0 8.46594 0 9.62876V13.0416C0 13.5466 0.412188 13.9572 0.919062 13.9572C3.10738 13.9572 2.84375 13.9968 2.84375 13.8628C2.84375 11.4445 2.55731 9.67104 4.19344 8.00063Z" fill="#11263C"/>
<path d="M8.74415 7.53217C7.37778 7.41821 6.19012 7.53349 5.16572 8.37905C3.45144 9.75217 3.78134 11.601 3.78134 13.8628C3.78134 14.4612 4.26822 14.9572 4.87572 14.9572C11.472 14.9572 11.7346 15.17 12.1257 14.3037C12.254 14.0108 12.2188 14.1039 12.2188 11.3015C12.2188 9.07574 10.2916 7.53217 8.74415 7.53217Z" fill="#11263C"/>
<path d="M13.8782 7.51968C13.0916 7.51968 12.4823 7.44705 11.8066 8.00062C13.4305 9.65861 13.1563 11.3111 13.1563 13.8628C13.1563 13.9976 12.9375 13.9572 15.0482 13.9572C15.5732 13.9572 16.0001 13.5319 16.0001 13.0091V9.62874C16.0001 8.46593 15.0482 7.51968 13.8782 7.51968Z" fill="#11263C"/>
</g>
<defs>
<clipPath id="clip0">
<rect width="16" height="16" fill="white"/>
</clipPath>
</defs>
</svg>
