<?xml version="1.0" encoding="utf-8"?>
<!-- Generator: Adobe Illustrator 16.0.0, SVG Export Plug-In . SVG Version: 6.00 Build 0)  -->
<!DOCTYPE svg PUBLIC "-//W3C//DTD SVG 1.1//EN" "http://www.w3.org/Graphics/SVG/1.1/DTD/svg11.dtd">
<svg version="1.1" id="Layer_1" xmlns="http://www.w3.org/2000/svg" xmlns:xlink="http://www.w3.org/1999/xlink" x="0px" y="0px"
	 width="600px" height="250px" viewBox="0 0 600 250" enable-background="new 0 0 600 250" xml:space="preserve">
<g>
	<g>
		<g>
			<g>
				<polygon fill="#3990C9" points="154.508,68.615 185.372,122.061 185.344,122.101 200.807,149.064 216.423,122.012 
					170.05,41.697 113.543,41.697 98.011,68.615 				"/>
				<polygon fill="#4BADE1" points="59.178,170.929 90.256,170.929 62.014,122.012 108.361,41.697 77.303,41.697 30.93,122.012 				
					"/>
				<polygon fill="#0F88BF" points="77.303,202.334 170.05,202.334 198.213,153.561 182.719,126.546 154.508,175.415 61.77,175.415 
									"/>
			</g>
		</g>
	</g>
</g>
<text transform="matrix(1 0 0 1 82.2515 149.0625)" fill="#055D84" font-family="'Algerian'" font-size="70.1376">DF</text>
<g>
	<path fill="#035D84" d="M227.388,136.125v-30.089l-3.857-0.624v-3.025h6.519c0.813,0,1.672,0,2.576,0s1.493,0,1.77,0
		c1.92,0,3.401,0,4.443,0c6.233,0,10.868,1.523,13.904,4.57c3.035,3.047,4.553,7.329,4.553,12.848c0,3.877-0.773,7.307-2.319,10.289
		c-1.546,2.983-3.715,5.305-6.506,6.963c-2.792,1.659-6.002,2.488-9.631,2.488c-0.83,0-2.222,0-4.175,0c-2.019,0-3.475,0-4.37,0
		h-7.031v-2.843L227.388,136.125z M235.237,136.697c0.74,0.06,1.575,0.089,2.502,0.089h1.123c2.409,0,4.529-0.607,6.36-1.823
		s3.263-3.012,4.297-5.387c1.033-2.375,1.55-5.277,1.55-8.707c0-5.201-1.123-9.13-3.369-11.787
		c-2.246-2.656-5.632-3.985-10.156-3.985c-0.993,0-2.222,0.112-3.687,0.335l-0.757,0.1v30.834
		C233.784,136.528,234.496,136.639,235.237,136.697z"/>
	<path fill="#035D84" d="M262.813,118.416c1.123-2.117,2.677-3.755,4.663-4.915c1.985-1.159,4.24-1.739,6.763-1.739
		c3.125,0,5.542,0.781,7.251,2.343s2.62,3.815,2.734,6.761v0.803c0,1.563-0.098,2.752-0.293,3.57h-16.919
		c0.065,2.393,0.472,4.379,1.221,5.957c0.749,1.579,1.733,2.742,2.954,3.491s2.596,1.123,4.126,1.123
		c1.334,0,2.706-0.231,4.114-0.696c1.408-0.463,2.51-0.996,3.308-1.599l1.025,2.344c-0.619,0.635-1.469,1.237-2.551,1.807
		c-1.083,0.57-2.287,1.029-3.613,1.38c-1.327,0.35-2.641,0.524-3.943,0.524c-2.734,0-5.042-0.58-6.921-1.739
		c-1.88-1.16-3.284-2.778-4.211-4.857c-0.928-2.077-1.392-4.502-1.392-7.271C261.128,122.961,261.689,120.533,262.813,118.416z
		 M278.364,122.406c0.065-0.503,0.098-1.104,0.098-1.803c-0.017-1.773-0.448-3.198-1.294-4.273
		c-0.847-1.076-2.181-1.614-4.004-1.614c-1.823,0-3.268,0.583-4.333,1.75c-1.066,1.167-1.672,3.146-1.819,5.94H278.364z"/>
	<path fill="#035D84" d="M291.89,136.589v-19.844l-3.491-0.946v-3.085l7.202-0.977h0.122l1.172,0.952v2.074l-0.049,1.178
		c0.732-0.692,1.68-1.359,2.844-2.001c1.164-0.642,2.393-1.165,3.687-1.571c1.294-0.404,2.47-0.607,3.528-0.607
		c1.79,0,3.23,0.301,4.321,0.903c1.09,0.603,1.92,1.538,2.49,2.808c0.635-0.553,1.509-1.119,2.625-1.697
		c1.115-0.577,2.307-1.057,3.577-1.439s2.449-0.574,3.54-0.574c2.116,0,3.76,0.387,4.932,1.16s1.994,1.961,2.466,3.563
		c0.472,1.603,0.708,3.767,0.708,6.493v13.61l3.491,0.401v2.555h-11.963v-2.555l2.881-0.426v-13.369
		c0-1.859-0.139-3.328-0.415-4.408c-0.277-1.081-0.798-1.895-1.563-2.443c-0.765-0.548-1.864-0.822-3.296-0.822
		c-0.993,0-2.075,0.236-3.247,0.711c-1.172,0.473-2.181,1.022-3.027,1.648c0.293,1.355,0.439,3.129,0.439,5.321v13.362l3.564,0.426
		v2.555h-12.402v-2.555l3.247-0.426v-13.504c0-1.86-0.122-3.316-0.366-4.366s-0.72-1.841-1.428-2.374
		c-0.708-0.532-1.746-0.799-3.113-0.799c-1.14,0-2.336,0.254-3.589,0.763c-1.253,0.508-2.352,1.135-3.296,1.88v18.4l3.271,0.426
		v2.555h-11.914v-2.555L291.89,136.589z"/>
	<path fill="#035D84" d="M342.695,131.348l0.977,3.533c0.195,0.326,0.574,0.636,1.135,0.931c0.563,0.294,1.225,0.534,1.99,0.72
		c0.765,0.187,1.546,0.279,2.344,0.279c1.839,0,3.149-0.331,3.931-0.993s1.172-1.569,1.172-2.722c0-0.811-0.265-1.523-0.794-2.139
		c-0.528-0.615-1.314-1.195-2.355-1.74c-1.042-0.545-2.458-1.16-4.248-1.847c-2.588-0.966-4.477-2.106-5.664-3.423
		c-1.188-1.316-1.782-3.018-1.782-5.105c0-1.402,0.443-2.637,1.331-3.703c0.887-1.067,2.103-1.896,3.65-2.488
		c1.546-0.593,3.287-0.889,5.225-0.889c1.497,0,2.815,0.118,3.955,0.354c1.139,0.236,2.286,0.542,3.442,0.916l0.879,0.269v5.938
		h-3.125l-1.05-3.254c-0.195-0.403-0.72-0.752-1.575-1.047c-0.854-0.294-1.811-0.441-2.868-0.441c-1.498,0-2.653,0.305-3.467,0.911
		c-0.814,0.608-1.221,1.402-1.221,2.384c0,0.872,0.24,1.604,0.72,2.196c0.48,0.593,1.078,1.075,1.795,1.448
		c0.716,0.375,1.717,0.818,3.003,1.332l0.952,0.398c1.855,0.764,3.36,1.479,4.517,2.149c1.155,0.67,2.115,1.526,2.881,2.57
		c0.765,1.044,1.147,2.321,1.147,3.832c0,1.558-0.428,2.929-1.281,4.112c-0.855,1.185-2.092,2.104-3.711,2.758
		c-1.62,0.654-3.537,0.981-5.75,0.981c-1.66,0-3.402-0.228-5.225-0.684c-1.823-0.455-3.28-0.928-4.37-1.416v-6.122H342.695z"/>
	<path fill="#035D84" d="M367.671,136.469V116.01l-3.54-1.001v-2.881l7.764-1.001h0.122l1.245,0.952v24.39l3.906,0.415v2.661
		h-13.452v-2.661L367.671,136.469z M367.635,100.385c0.643-0.765,1.541-1.147,2.697-1.147h0.024c0.684,0,1.277,0.159,1.782,0.476
		c0.504,0.318,0.891,0.737,1.16,1.258c0.268,0.521,0.402,1.074,0.402,1.66c0,1.14-0.326,2.075-0.977,2.808
		c-0.651,0.732-1.596,1.099-2.832,1.099h-0.024c-0.944,0-1.713-0.317-2.308-0.952c-0.594-0.635-0.891-1.433-0.891-2.393
		C366.67,102.086,366.991,101.15,367.635,100.385z"/>
	<path fill="#035D84" d="M384.834,136.444v-21.143h-4.663v-2.417l4.663-1.099v-2.312c0-2.059,0.562-3.957,1.685-5.691
		c1.123-1.736,2.584-3.11,4.382-4.124c1.799-1.014,3.658-1.521,5.579-1.521c0.716,0,1.282,0.037,1.696,0.109
		c0.416,0.074,0.826,0.168,1.233,0.281v5.543c-0.342-0.311-0.952-0.611-1.831-0.904s-1.848-0.439-2.905-0.439
		c-1.091,0-1.94,0.138-2.552,0.412c-0.609,0.275-1.049,0.762-1.318,1.458c-0.268,0.696-0.402,1.692-0.402,2.986l0.024,4.201h6.714
		v3.516h-6.714v21.167l5.298,0.439v2.637h-15.015v-2.637L384.834,136.444z"/>
	<path fill="#035D84" d="M402.314,146.719c0.195,0.108,0.594,0.206,1.196,0.291c0.602,0.085,1.172,0.128,1.709,0.128
		c0.977,0,1.876-0.191,2.698-0.574c0.821-0.383,1.655-1.129,2.502-2.238c0.846-1.109,1.668-2.703,2.466-4.78h-2.759l-9.131-24.536
		l-2.319-0.635v-2.588h12.427v2.588l-3.833,0.635l4.712,14.746l2.173,7.08l1.953-7.104l4.419-14.746l-3.271-0.61v-2.588h10.254
		v2.588l-2.49,0.604c-2.344,7.23-4.252,13.005-5.725,17.322c-1.474,4.316-2.414,6.936-2.82,7.854
		c-1.107,2.776-2.152,4.971-3.137,6.585c-0.985,1.613-2.125,2.841-3.418,3.68c-1.295,0.839-2.878,1.259-4.749,1.259
		c-0.505,0-1.05-0.036-1.636-0.109s-0.993-0.159-1.221-0.257V146.719z"/>
	<path fill="#045D84" d="M449.043,136.298v-30.591l-4.102-0.61v-2.71h26.66l0.513,8.545h-3.54l-1.611-5.591H454.78v14.014h8.496
		l0.977-4.15h3.003v11.646h-3.003l-0.977-4.272h-8.496v13.721l7.422,0.586v2.661h-17.188v-2.661L449.043,136.298z"/>
	<path fill="#045D84" d="M477.363,118.416c1.123-2.117,2.677-3.755,4.663-4.915c1.985-1.159,4.239-1.739,6.763-1.739
		c3.125,0,5.542,0.781,7.251,2.343s2.62,3.815,2.734,6.761v0.803c0,1.563-0.098,2.752-0.293,3.57h-16.919
		c0.064,2.393,0.472,4.379,1.221,5.957c0.748,1.579,1.733,2.742,2.954,3.491s2.596,1.123,4.126,1.123
		c1.334,0,2.706-0.231,4.113-0.696c1.408-0.463,2.511-0.996,3.309-1.599l1.025,2.344c-0.619,0.635-1.469,1.237-2.551,1.807
		c-1.083,0.57-2.287,1.029-3.613,1.38c-1.327,0.35-2.642,0.524-3.943,0.524c-2.734,0-5.041-0.58-6.922-1.739
		c-1.879-1.16-3.283-2.778-4.211-4.857c-0.928-2.077-1.392-4.502-1.392-7.271C475.679,122.961,476.24,120.533,477.363,118.416z
		 M492.915,122.406c0.064-0.503,0.098-1.104,0.098-1.803c-0.017-1.773-0.448-3.198-1.294-4.273
		c-0.847-1.076-2.182-1.614-4.004-1.614c-1.823,0-3.268,0.583-4.334,1.75c-1.065,1.167-1.672,3.146-1.818,5.94H492.915z"/>
	<path fill="#045D84" d="M506.44,136.589v-19.844l-3.491-0.946v-3.085l7.202-0.977h0.122l1.172,0.952v2.074l-0.049,1.178
		c0.732-0.692,1.681-1.359,2.844-2.001c1.164-0.642,2.393-1.165,3.688-1.571c1.293-0.404,2.469-0.607,3.527-0.607
		c1.79,0,3.23,0.301,4.321,0.903c1.09,0.603,1.92,1.538,2.49,2.808c0.635-0.553,1.51-1.119,2.624-1.697
		c1.115-0.577,2.308-1.057,3.577-1.439s2.449-0.574,3.54-0.574c2.115,0,3.76,0.387,4.932,1.16s1.993,1.961,2.466,3.563
		c0.472,1.603,0.708,3.767,0.708,6.493v13.61l3.491,0.401v2.555h-11.963v-2.555l2.881-0.426v-13.369
		c0-1.859-0.139-3.328-0.415-4.408c-0.277-1.081-0.798-1.895-1.563-2.443c-0.766-0.548-1.864-0.822-3.296-0.822
		c-0.993,0-2.075,0.236-3.247,0.711c-1.172,0.473-2.182,1.022-3.027,1.648c0.293,1.355,0.439,3.129,0.439,5.321v13.362l3.564,0.426
		v2.555h-12.402v-2.555l3.247-0.426v-13.504c0-1.86-0.122-3.316-0.366-4.366s-0.721-1.841-1.428-2.374
		c-0.709-0.532-1.746-0.799-3.113-0.799c-1.14,0-2.336,0.254-3.589,0.763c-1.254,0.508-2.353,1.135-3.296,1.88v18.4l3.271,0.426
		v2.555h-11.914v-2.555L506.44,136.589z"/>
	<path fill="#045D84" d="M569.331,121.076c0-1.309-0.159-2.338-0.476-3.09c-0.318-0.752-0.867-1.302-1.648-1.649
		c-0.781-0.349-1.889-0.522-3.32-0.522c-2.751,0-5.648,0.67-8.691,2.012h-0.024l-1.221-2.231c0.439-0.391,1.282-0.896,2.526-1.514
		c1.246-0.618,2.662-1.159,4.248-1.624c1.588-0.463,3.097-0.695,4.529-0.695c2.376,0,4.244,0.308,5.604,0.924
		c1.358,0.615,2.339,1.601,2.941,2.955c0.602,1.355,0.903,3.187,0.903,5.492v15.189h2.979v2.393
		c-2.377,0.57-4.167,0.854-5.371,0.854c-0.684,0-1.205-0.057-1.563-0.171c-0.358-0.113-0.622-0.346-0.794-0.695
		c-0.17-0.351-0.256-0.892-0.256-1.624v-1.172c-0.879,0.863-2.035,1.689-3.467,2.479c-1.433,0.789-3.036,1.184-4.81,1.184
		c-1.563,0-2.982-0.285-4.261-0.856c-1.277-0.572-2.295-1.453-3.051-2.645c-0.758-1.191-1.136-2.677-1.136-4.456
		c0-2.171,0.753-3.958,2.259-5.361c1.505-1.403,3.482-2.437,5.932-3.097c2.45-0.662,5.172-0.992,8.167-0.992V121.076z
		 M569.331,124.896c-2.393,0-4.358,0.273-5.896,0.818c-1.539,0.545-2.653,1.266-3.346,2.16c-0.691,0.896-1.037,1.912-1.037,3.052
		c0,1.709,0.423,2.962,1.27,3.76c0.846,0.798,1.985,1.196,3.418,1.196c0.765,0,1.688-0.216,2.771-0.646
		c1.082-0.432,2.021-0.957,2.819-1.575V124.896z"/>
</g>
</svg>
