<svg width="16" height="16" viewBox="0 0 16 16" fill="none" xmlns="http://www.w3.org/2000/svg">
<path d="M1.25 12.1151V11.439C1.25 10.6158 1.89661 9.94602 2.69141 9.94602H8.68752C9.03212 9.94602 9.31252 10.2365 9.31252 10.5935C9.31252 10.7469 9.26052 10.8879 9.17397 10.9991L9.04714 11.1191C9.04335 11.1227 9.04006 11.1268 9.03627 11.1306C8.93654 11.2003 8.81655 11.241 8.68752 11.241H5.56251C5.2173 11.241 4.93751 11.5308 4.93751 11.8885C4.93751 12.2461 5.2173 12.536 5.56251 12.536H8.68752C9.23085 12.536 9.72072 12.295 10.0635 11.9112L13.6711 8.49613C13.6765 8.49095 13.682 8.48563 13.6873 8.48032C13.8064 8.35917 13.9644 8.29354 14.1309 8.29493C14.2979 8.29657 14.4543 8.3655 14.5711 8.48892C14.688 8.61235 14.7516 8.77561 14.75 8.94849C14.7486 9.11883 14.684 9.27842 14.5683 9.39894L11.388 12.4495C11.3845 12.4527 11.3811 12.456 11.3778 12.4594C9.93398 13.9076 8.03212 14.705 6.0226 14.705H0.625002C0.279786 14.705 0 14.9949 0 15.3525C0 15.7101 0.279786 16 0.625002 16H6.0226C7.17885 16 8.30849 15.7721 9.38027 15.3227C10.4497 14.8742 11.4126 14.2256 12.2422 13.3949L15.4252 10.3418C15.4296 10.3375 15.434 10.3332 15.4384 10.3288C15.7958 9.96537 15.9953 9.4795 15.9999 8.96063C16.0047 8.44188 15.814 7.95222 15.4633 7.58194C15.1125 7.21153 14.6435 7.00489 14.1426 7.00009C13.6466 6.99528 13.1769 7.1894 12.8205 7.54716L10.4107 9.82841C10.1234 9.13666 9.45925 8.65105 8.68752 8.65105H2.69141C1.2074 8.65105 0 9.90176 0 11.439V12.1151C0 12.4727 0.279786 12.7626 0.625002 12.7626C0.970217 12.7626 1.25 12.4727 1.25 12.1151Z" fill="#11263C"/>
<path d="M7.22225 2.84444C7.95863 2.84444 8.55558 2.20769 8.55558 1.42222C8.55558 0.636751 7.95863 0 7.22225 0C6.48587 0 5.88892 0.636751 5.88892 1.42222C5.88892 2.20769 6.48587 2.84444 7.22225 2.84444Z" fill="#11263C"/>
<path d="M7.6183 3.39795C6.90111 3.33569 6.27772 3.39867 5.74002 3.86058C4.84021 4.61069 5.01338 5.62068 5.01338 6.85625C5.01338 7.18314 5.26893 7.45408 5.5878 7.45408C9.05014 7.45408 9.18794 7.57032 9.39325 7.09712C9.46058 6.9371 9.44213 6.98795 9.44213 5.45709C9.44213 4.24117 8.43052 3.39795 7.6183 3.39795Z" fill="#11263C"/>
</svg>
