<svg width="16" height="16" viewBox="0 0 16 16" fill="none" xmlns="http://www.w3.org/2000/svg">
<g clip-path="url(#clip0)">
<path d="M14.5958 6.64306L8.35556 0.401889C7.98753 0.034763 7.39219 0.0391067 7.02897 0.40142C6.66368 0.767639 6.66368 1.36227 7.02897 1.72802L13.2701 7.96875C13.6358 8.33437 14.2302 8.33437 14.5958 7.96875C14.9625 7.60212 14.9625 7.00962 14.5958 6.64306Z" fill="#11263C"/>
<path d="M6.56616 2.59076L6.51919 2.8262C6.18835 4.48114 5.38429 6.05336 4.29675 7.32764L7.69198 10.7229C8.96611 9.63555 10.5167 8.8099 12.1717 8.47865L12.4075 8.43168L6.56616 2.59076Z" fill="#11263C"/>
<path d="M3.67437 8.03094L1.35396 10.3509C0.80568 10.8992 0.803399 11.7893 1.35396 12.3399L2.67965 13.6655C3.22793 14.2138 4.11806 14.2161 4.66863 13.6655L6.98882 11.3454L3.67437 8.03094ZM4.00581 11.677C3.82272 11.8601 3.52606 11.8601 3.34297 11.677C3.15987 11.494 3.15987 11.1973 3.34297 11.0142L4.00581 10.3514C4.18891 10.1683 4.48556 10.1683 4.66866 10.3514C4.85175 10.5344 4.85175 10.8311 4.66866 11.0142L4.00581 11.677Z" fill="#11263C"/>
<path d="M8.9458 13.915L9.58346 13.2773C10.1341 12.7268 10.1322 11.8367 9.58349 11.2889L9.10987 10.8149C8.84808 10.9907 8.59808 11.1818 8.35502 11.3857L8.92065 11.9521C9.1033 12.1339 9.10458 12.4296 8.92065 12.6145L8.27246 13.2627L7.31989 12.3398L5.99414 13.6655L8.12093 15.7264C8.48386 16.0903 9.07977 16.0923 9.44615 15.7259C9.8119 15.3602 9.8119 14.7656 9.44615 14.3998L8.9458 13.915Z" fill="#11263C"/>
<path d="M10.8395 0C10.5804 0 10.3707 0.209657 10.3707 0.468751V1.40625C10.3707 1.66535 10.5804 1.875 10.8395 1.875C11.0986 1.875 11.3082 1.66535 11.3082 1.40625V0.468751C11.3082 0.209657 11.0986 0 10.8395 0Z" fill="#11263C"/>
<path d="M14.5895 3.75H13.652C13.3929 3.75 13.1832 3.95966 13.1832 4.21875C13.1832 4.47785 13.3929 4.6875 13.652 4.6875H14.5895C14.8486 4.6875 15.0582 4.47785 15.0582 4.21875C15.0582 3.95966 14.8486 3.75 14.5895 3.75Z" fill="#11263C"/>
<path d="M13.9834 1.07482C13.8003 0.891726 13.5036 0.891726 13.3205 1.07482L12.383 2.01232C12.2 2.19542 12.2 2.49207 12.383 2.67517C12.5661 2.85826 12.8628 2.85829 13.0459 2.67517L13.9834 1.73767C14.1665 1.55457 14.1665 1.25791 13.9834 1.07482Z" fill="#11263C"/>
</g>
<defs>
<clipPath id="clip0">
<rect width="16" height="16" fill="white"/>
</clipPath>
</defs>
</svg>
