<svg width="14" height="14" viewBox="0 0 14 14" fill="none" xmlns="http://www.w3.org/2000/svg">
<g clip-path="url(#clip0)">
<path d="M5.25141 12.25H8.75135C8.74997 12.7137 8.56516 13.158 8.23728 13.4859C7.90939 13.8138 7.46508 13.9986 7.00138 14C6.53769 13.9986 6.09337 13.8138 5.76548 13.4859C5.4376 13.158 5.25279 12.7137 5.25141 12.25ZM0.876474 11.375C0.75974 11.3821 0.642846 11.3642 0.533508 11.3227C0.42417 11.2813 0.324824 11.217 0.24213 11.1344C0.159437 11.0517 0.0953147 10.9524 0.0538246 10.843C0.0123345 10.7337 -0.00552929 10.6168 0.00148779 10.5001C-0.00552929 10.3833 0.0123345 10.2664 0.0538246 10.1571C0.0953147 10.0477 0.159437 9.94845 0.24213 9.86576C0.324824 9.78306 0.42417 9.71885 0.533508 9.67736C0.642846 9.63587 0.75974 9.61805 0.876474 9.62507H1.31397C1.69542 9.29603 2.00778 8.89462 2.23307 8.44404C2.45835 7.99347 2.59209 7.50269 2.62645 7.00011V4.37515C2.62084 3.79906 2.73018 3.22764 2.94805 2.69431C3.16593 2.16099 3.48798 1.67647 3.89535 1.2691C4.30272 0.861723 4.78719 0.539679 5.32051 0.321806C5.85384 0.103932 6.4253 -0.00539731 7.00138 0.000214309C7.5775 -0.0055163 8.14898 0.103734 8.68235 0.321565C9.21573 0.539397 9.70034 0.861432 10.1077 1.26883C10.5151 1.67623 10.8371 2.1608 11.0549 2.69418C11.2728 3.22756 11.382 3.79903 11.3763 4.37515V7.00011C11.4105 7.50272 11.5442 7.99355 11.7695 8.44414C11.9948 8.89473 12.3072 9.29613 12.6888 9.62507H13.1263C13.243 9.61805 13.3599 9.63587 13.4693 9.67736C13.5786 9.71885 13.6779 9.78306 13.7606 9.86576C13.8433 9.94845 13.9074 10.0477 13.9489 10.1571C13.9904 10.2664 14.0083 10.3833 14.0013 10.5001C14.0083 10.6168 13.9904 10.7337 13.9489 10.843C13.9074 10.9524 13.8433 11.0517 13.7606 11.1344C13.6779 11.217 13.5786 11.2813 13.4693 11.3227C13.3599 11.3642 13.243 11.3821 13.1263 11.375H0.876474Z" fill="#52616B"/>
</g>
<defs>
<clipPath id="clip0">
<rect width="14" height="14" fill="white"/>
</clipPath>
</defs>
</svg>
