<svg width="16" height="16" viewBox="0 0 16 16" fill="none" xmlns="http://www.w3.org/2000/svg">
<g clip-path="url(#clip0)">
<path d="M15.9498 7.11181C15.9245 6.88693 15.6622 6.71775 15.4354 6.71775C14.7023 6.71775 14.0518 6.2875 13.7789 5.62158C13.5004 4.93967 13.6801 4.14456 14.2263 3.64352C14.3983 3.48624 14.4193 3.22289 14.2751 3.04008C13.8997 2.56361 13.4734 2.13315 13.0077 1.76012C12.8255 1.61398 12.5578 1.63433 12.3997 1.80932C11.9229 2.33741 11.0663 2.53364 10.4044 2.25749C9.71584 1.96777 9.28123 1.26981 9.32392 0.520644C9.33797 0.285176 9.16582 0.0805687 8.93118 0.053237C8.33355 -0.0159573 7.73066 -0.017964 7.1313 0.0485317C6.89963 0.0741336 6.72762 0.273898 6.7353 0.50639C6.76125 1.24822 6.32172 1.93387 5.63981 2.21321C4.98586 2.48036 4.13525 2.28558 3.6594 1.76213C3.50213 1.5897 3.23912 1.56852 3.05568 1.71155C2.57631 2.08776 2.14031 2.51849 1.76154 2.99109C1.61395 3.1748 1.63575 3.44106 1.80922 3.59889C2.36616 4.10325 2.54572 4.90521 2.25656 5.59508C1.98047 6.25277 1.2976 6.67644 0.515909 6.67644C0.262243 6.66828 0.0817148 6.8387 0.0536911 7.0694C-0.0166103 7.67021 -0.0173714 8.28272 0.0503006 8.88845C0.0755565 9.1143 0.345622 9.28202 0.574932 9.28202C1.27172 9.26431 1.94027 9.69539 2.22113 10.3781C2.50061 11.06 2.3207 11.8548 1.77365 12.3565C1.60254 12.5138 1.58067 12.7765 1.72515 12.9591C2.09665 13.4326 2.52344 13.8634 2.9905 14.2396C3.17387 14.3872 3.44054 14.3666 3.59948 14.1914C4.07817 13.662 4.93459 13.4661 5.5938 13.7428C6.28436 14.0318 6.71876 14.7297 6.67634 15.4791C6.66244 15.7145 6.83501 15.9198 7.06881 15.9465C7.37465 15.9822 7.68208 16 7.99048 16C8.28317 16 8.57593 15.984 8.8687 15.9514C9.10063 15.9258 9.27237 15.7258 9.26455 15.4932C9.23778 14.7518 9.67827 14.066 10.3593 13.7873C11.0177 13.5184 11.8645 13.7152 12.3406 14.2379C12.4987 14.4099 12.7601 14.4308 12.9443 14.2884C13.4229 13.9131 13.858 13.4826 14.2384 13.0088C14.3862 12.8254 14.3652 12.5588 14.1908 12.4007C13.634 11.8967 13.4534 11.0944 13.7426 10.4052C14.0144 9.75635 14.6719 9.3207 15.379 9.3207L15.478 9.32333C15.7076 9.34195 15.9186 9.16516 15.9463 8.93093C16.0169 8.32957 16.0177 7.71775 15.9498 7.11181ZM8.0001 12.6121C5.45285 12.6121 3.38803 10.5472 3.38803 8.00006C3.38803 5.45288 5.45292 3.38806 8.0001 3.38806C10.5473 3.38806 12.6122 5.45288 12.6122 8.00006C12.6122 8.86464 12.3738 9.67332 11.9598 10.3648L9.94031 8.34527C10.0865 8.00055 10.1637 7.62683 10.1637 7.24114C10.1637 6.48588 9.86952 5.77588 9.33541 5.24191C8.80144 4.70794 8.09144 4.41386 7.33632 4.41386C7.08431 4.41386 6.83348 4.44735 6.59082 4.51343C6.48454 4.54242 6.39763 4.63002 6.36933 4.73651C6.34041 4.84543 6.373 4.95704 6.45811 5.04221C6.45811 5.04221 7.45513 6.04691 7.78871 6.38043C7.82365 6.41537 7.82359 6.49875 7.81867 6.52878L7.81556 6.55072C7.78193 6.91745 7.7171 7.35766 7.66361 7.52684C7.65641 7.53397 7.64963 7.53999 7.6423 7.54732C7.63462 7.555 7.62756 7.56241 7.62015 7.57002C7.44876 7.62503 7.00176 7.69062 6.62922 7.72398L6.62929 7.72197L6.61255 7.72619C6.60957 7.72654 6.60404 7.72695 6.5967 7.72695C6.55643 7.72695 6.4972 7.71567 6.44337 7.66191C6.09615 7.31469 5.13822 6.36362 5.13822 6.36362C5.05229 6.27795 4.96413 6.25996 4.90539 6.25996C4.76845 6.25996 4.64584 6.35891 4.60723 6.50083C4.34353 7.47668 4.62307 8.52635 5.33695 9.2403C5.87106 9.77434 6.58113 10.0684 7.33639 10.0684C7.72208 10.0684 8.0958 9.99127 8.44045 9.84506L10.4819 11.8865C9.76518 12.3451 8.91409 12.6121 8.0001 12.6121Z" fill="#11263C"/>
</g>
<defs>
<clipPath id="clip0">
<rect width="16" height="16" fill="white"/>
</clipPath>
</defs>
</svg>
