<svg width="16" height="16" viewBox="0 0 16 16" fill="none" xmlns="http://www.w3.org/2000/svg">
<g clip-path="url(#clip0)">
<path d="M15.7199 0.68818C15.563 0.570138 15.3599 0.532541 15.1713 0.58674C14.4473 0.794626 13.5246 0.73591 12.3563 0.661691C11.6249 0.615182 10.7959 0.562448 9.84377 0.562448C9.09768 0.562448 8.42727 0.891428 7.96877 1.41145C7.51027 0.891428 6.83998 0.562448 6.09377 0.562448C5.14174 0.562448 4.31264 0.615182 3.58119 0.661691C2.41298 0.736032 1.49024 0.794748 0.766245 0.58674C0.577646 0.532541 0.374521 0.570138 0.217782 0.68818C0.0609216 0.806345 -0.0312416 0.991159 -0.0312416 1.18745V11.5561C-0.0329506 12.2251 0.226327 12.8543 0.69874 13.328C1.17115 13.8016 1.79982 14.0625 2.46876 14.0625H7.00002C7.34523 14.0625 7.62502 13.7827 7.62502 13.4375C7.62502 13.0923 7.34523 12.8125 7.00002 12.8125H2.46876C2.13429 12.8125 1.81996 12.6821 1.58375 12.4453C1.34754 12.2085 1.21791 11.8938 1.21876 11.5577V11.2262C1.5868 11.4395 2.01356 11.5625 2.46876 11.5625H7.12502C7.26394 11.5625 7.35903 11.6488 7.40175 11.7295C7.51394 11.9412 7.73049 12.0621 7.95461 12.0621C8.05324 12.0621 8.15334 12.0388 8.24648 11.9893C8.43471 11.8897 8.5508 11.7076 8.57436 11.5112C8.58657 11.4625 8.59377 11.4118 8.59377 11.3593V3.06245C8.59377 2.37324 9.15444 1.81245 9.84377 1.81245C10.7561 1.81245 11.5641 1.86384 12.277 1.90913C13.2093 1.96846 13.9999 2.01875 14.7188 1.94075V6.43746C14.7188 6.78267 14.9986 7.06246 15.3438 7.06246C15.689 7.06246 15.9688 6.78267 15.9688 6.43746V1.18745C15.9688 0.991159 15.8766 0.806345 15.7199 0.68818ZM2.46876 10.3125C1.77955 10.3125 1.21876 9.75167 1.21876 9.06246V1.94075C1.93763 2.01875 2.72816 1.96846 3.66041 1.90913C4.37343 1.86384 5.18141 1.81245 6.09377 1.81245C6.78298 1.81245 7.34377 2.37324 7.34377 3.06245V10.3278C7.27199 10.3177 7.19899 10.3125 7.12502 10.3125H2.46876ZM6.28127 4.0937C6.28127 4.43892 6.00148 4.7187 5.65627 4.7187H2.93751C2.5923 4.7187 2.31251 4.43892 2.31251 4.0937C2.31251 3.74849 2.5923 3.4687 2.93751 3.4687H5.65627C6.00148 3.4687 6.28127 3.74849 6.28127 4.0937ZM5.34377 6.59371C5.34377 6.93892 5.06398 7.21871 4.71877 7.21871H2.93751C2.5923 7.21871 2.31251 6.93892 2.31251 6.59371C2.31251 6.24849 2.5923 5.96871 2.93751 5.96871H4.71877C5.06398 5.96871 5.34377 6.24849 5.34377 6.59371ZM12.7685 8.51742L9.33718 11.9411C9.2643 12.0139 9.21047 12.1035 9.18056 12.202L8.43325 14.6621C8.36709 14.8802 8.42483 15.1172 8.58388 15.2802C8.70315 15.4024 8.86513 15.4688 9.03139 15.4688C9.08694 15.4688 9.14309 15.4614 9.19814 15.446L11.7209 14.7473C11.8246 14.7185 11.9192 14.6634 11.9955 14.5872L15.4197 11.1696C16.1507 10.4386 16.1507 9.24898 15.4197 8.5179C14.6886 7.78682 13.4991 7.78682 12.7685 8.51742ZM11.2287 13.5864L9.95962 13.938L10.331 12.7153L12.6463 10.4051L13.5303 11.2891L11.2287 13.5864ZM14.5362 10.2852L14.4151 10.4061L13.5312 9.52218L13.6519 9.40182C13.8955 9.15804 14.292 9.15804 14.5357 9.40182C14.7794 9.64547 14.7794 10.042 14.5362 10.2852Z" fill="#11263C"/>
</g>
<defs>
<clipPath id="clip0">
<rect width="16" height="16" fill="white"/>
</clipPath>
</defs>
</svg>
